<svg width="18" height="29" viewBox="0 0 18 29" fill="none" xmlns="http://www.w3.org/2000/svg">
<path d="M15.3 0H2.7C1.20938 0 0 1.21777 0 2.71875V26.2812C0 27.7822 1.20938 29 2.7 29H15.3C16.7906 29 18 27.7822 18 26.2812V2.71875C18 1.21777 16.7906 0 15.3 0ZM9 27.1875C8.00437 27.1875 7.2 26.3775 7.2 25.375C7.2 24.3725 8.00437 23.5625 9 23.5625C9.99562 23.5625 10.8 24.3725 10.8 25.375C10.8 26.3775 9.99562 27.1875 9 27.1875ZM15.3 21.0703C15.3 21.4441 14.9962 21.75 14.625 21.75H3.375C3.00375 21.75 2.7 21.4441 2.7 21.0703V3.39844C2.7 3.02461 3.00375 2.71875 3.375 2.71875H14.625C14.9962 2.71875 15.3 3.02461 15.3 3.39844V21.0703Z" fill="#A98C65"/>
</svg>
