<svg width="20" height="27" viewBox="0 0 20 27" fill="none" xmlns="http://www.w3.org/2000/svg">
<path d="M8.97229 26.1445C1.40469 15.448 0 14.3502 0 10.4191C0 5.03427 4.47714 0.669067 10 0.669067C15.5229 0.669067 20 5.03427 20 10.4191C20 14.3502 18.5953 15.448 11.0277 26.1445C10.5311 26.844 9.46885 26.8439 8.97229 26.1445ZM10 14.4816C12.3012 14.4816 14.1667 12.6627 14.1667 10.4191C14.1667 8.1754 12.3012 6.35657 10 6.35657C7.6988 6.35657 5.83333 8.1754 5.83333 10.4191C5.83333 12.6627 7.6988 14.4816 10 14.4816Z" fill="#A98C65"/>
</svg>
