<svg width="20" height="22" viewBox="0 0 20 22" fill="none" xmlns="http://www.w3.org/2000/svg">
<path d="M4.47679 21.6691H0.330357V7.64844H4.47679V21.6691ZM2.40134 5.7359C1.07545 5.7359 0 4.58275 0 3.19053C9.49017e-09 2.5218 0.252998 1.88045 0.703336 1.40759C1.15367 0.934721 1.76446 0.669067 2.40134 0.669067C3.03821 0.669067 3.649 0.934721 4.09934 1.40759C4.54968 1.88045 4.80268 2.5218 4.80268 3.19053C4.80268 4.58275 3.72679 5.7359 2.40134 5.7359ZM19.9955 21.6691H15.858V14.8439C15.858 13.2173 15.8268 11.1313 13.7022 11.1313C11.5464 11.1313 11.2161 12.8986 11.2161 14.7267V21.6691H7.07411V7.64844H11.0509V9.56098H11.1089C11.6625 8.4594 13.0147 7.29687 15.0321 7.29687C19.2286 7.29687 20 10.1985 20 13.9673V21.6691H19.9955Z" fill="#A98C65"/>
</svg>
